G04*
G04 #@! TF.GenerationSoftware,Altium Limited,Altium Designer,25.8.1 (18)*
G04*
G04 Layer_Color=8388736*
%FSLAX44Y44*%
%MOMM*%
G71*
G04*
G04 #@! TF.SameCoordinates,F5F51230-77A1-446E-BA80-DD4D168F1C86*
G04*
G04*
G04 #@! TF.FilePolarity,Negative*
G04*
G01*
G75*
%ADD23R,0.6932X0.6232*%
%ADD24R,1.6032X2.0032*%
%ADD25R,0.6232X0.6932*%
%ADD26R,2.0032X1.6032*%
%ADD27R,16.5282X2.5898*%
%ADD28R,10.8733X2.7752*%
%ADD29C,1.7272*%
%ADD30R,22.6281X1.9980*%
%ADD31R,20.5415X3.7566*%
%ADD32R,4.0497X56.6212*%
%ADD33R,3.4465X7.6256*%
%ADD34C,1.4732*%
D23*
X676502Y552250D02*
D03*
X693002D02*
D03*
X734502Y572000D02*
D03*
X751002D02*
D03*
D24*
X450000Y563750D02*
D03*
X476000D02*
D03*
X672002Y575750D02*
D03*
X698002D02*
D03*
X907504Y580750D02*
D03*
X933504D02*
D03*
X907504Y553750D02*
D03*
X933504D02*
D03*
D25*
X718252Y555500D02*
D03*
Y572000D02*
D03*
X651752Y512249D02*
D03*
Y528749D02*
D03*
D26*
X718252Y478500D02*
D03*
Y504500D02*
D03*
X776004Y505000D02*
D03*
Y531000D02*
D03*
D27*
X573453Y564192D02*
D03*
D28*
X822002Y568000D02*
D03*
D29*
X-26500Y570500D02*
D03*
D30*
X119325Y564192D02*
D03*
D31*
X332892D02*
D03*
D32*
X6959Y282100D02*
D03*
D33*
X231191Y527058D02*
D03*
D34*
X232500Y472250D02*
D03*
X719500Y452000D02*
D03*
X4750Y-17750D02*
D03*
M02*
