G04*
G04 #@! TF.GenerationSoftware,Altium Limited,Altium Designer,25.8.1 (18)*
G04*
G04 Layer_Physical_Order=1*
G04 Layer_Color=255*
%FSLAX44Y44*%
%MOMM*%
G71*
G04*
G04 #@! TF.SameCoordinates,F5F51230-77A1-446E-BA80-DD4D168F1C86*
G04*
G04*
G04 #@! TF.FilePolarity,Positive*
G04*
G01*
G75*
%ADD12R,0.4900X0.4200*%
%ADD13R,1.4000X1.8000*%
%ADD14R,0.4200X0.4900*%
%ADD15R,1.8000X1.4000*%
%ADD16R,16.3250X2.3866*%
%ADD17R,10.6701X2.5721*%
%ADD18C,1.5240*%
%ADD19R,22.4249X1.7948*%
%ADD20R,20.3383X3.5534*%
%ADD21R,3.8465X56.4180*%
%ADD22R,3.2433X7.4224*%
%ADD35C,0.2540*%
%ADD36C,0.0000*%
%ADD37C,1.2700*%
D12*
X676502Y552250D02*
D03*
X693002D02*
D03*
X734502Y572000D02*
D03*
X751002D02*
D03*
D13*
X450000Y563750D02*
D03*
X476000D02*
D03*
X672002Y575750D02*
D03*
X698002D02*
D03*
X907504Y580750D02*
D03*
X933504D02*
D03*
X907504Y553750D02*
D03*
X933504D02*
D03*
D14*
X718252Y555500D02*
D03*
Y572000D02*
D03*
X651752Y512249D02*
D03*
Y528749D02*
D03*
D15*
X718252Y478500D02*
D03*
Y504500D02*
D03*
X776004Y505000D02*
D03*
Y531000D02*
D03*
D16*
X573453Y564192D02*
D03*
D17*
X822002Y568000D02*
D03*
D18*
X-26500Y570500D02*
D03*
D19*
X119325Y564192D02*
D03*
D20*
X332892D02*
D03*
D21*
X6959Y282100D02*
D03*
D22*
X231191Y527058D02*
D03*
D35*
X230250Y500250D02*
X232500Y498000D01*
Y472250D02*
Y498000D01*
X718252Y453248D02*
Y478500D01*
Y453248D02*
X719500Y452000D01*
X719750Y451750D01*
X883002D01*
X719250D02*
X719500Y452000D01*
X669752Y451750D02*
X719250D01*
X883002D02*
X933504Y502252D01*
X651752Y469750D02*
X669752Y451750D01*
X4750Y-17750D02*
Y279891D01*
X6959Y282100D01*
X432750Y563500D02*
X433000Y563750D01*
X450000D01*
X496000D02*
X496250Y563500D01*
X476000Y563750D02*
X496000D01*
X751002Y532488D02*
Y572000D01*
X775504Y504500D02*
X776004Y505000D01*
X775754Y505250D02*
X776004Y505000D01*
X752490Y531000D02*
X776004D01*
X775004Y558500D02*
X775754Y557750D01*
X751002Y572000D02*
X757502D01*
X751002Y532488D02*
X752490Y531000D01*
X771005Y560750D02*
X771255Y560500D01*
X576703Y564192D02*
X576909Y564398D01*
X718252Y555500D02*
X718252Y555500D01*
X718252Y504500D02*
Y555500D01*
X933504Y502252D02*
Y553750D01*
X892502Y568000D02*
Y579262D01*
X933504Y553750D02*
Y580750D01*
X892502Y579262D02*
X893990Y580750D01*
X892502Y555238D02*
X893990Y553750D01*
X892502Y555238D02*
Y568000D01*
X893990Y580750D02*
X907504D01*
X893990Y553750D02*
X907504D01*
X718252Y572000D02*
X734252D01*
X672082Y561670D02*
X676502Y557250D01*
X666272Y568020D02*
X669752Y571500D01*
X718252Y504500D02*
X775504D01*
X651752Y469750D02*
Y512249D01*
X891742Y567240D02*
X892502Y568000D01*
X760599Y568903D02*
X762252Y567250D01*
X822762Y567240D02*
X891742D01*
X822002Y568000D02*
X822762Y567240D01*
X734252Y572000D02*
X734502Y572250D01*
X757502Y572000D02*
X760599Y568903D01*
X762252Y567250D02*
X768765D01*
X703502Y552250D02*
X706002Y554750D01*
X706752Y555500D01*
X576909Y564398D02*
X660650D01*
X713002Y572000D02*
X718252D01*
X693002Y552250D02*
X703502D01*
X709252Y575750D02*
X713002Y572000D01*
X669752Y573500D02*
X672002Y575750D01*
X706752Y555500D02*
X718252D01*
X698002Y575750D02*
X709252D01*
X664272Y568020D02*
X666272D01*
X651752Y528749D02*
Y533250D01*
X670752Y552250D01*
X660650Y564398D02*
X664272Y568020D01*
X671752Y562000D02*
Y571500D01*
X670752Y552250D02*
X676502D01*
Y557250D01*
X671752Y562000D02*
X672082Y561670D01*
X669752Y573500D02*
X671752Y571500D01*
X669752D02*
Y573500D01*
X-26500Y570500D02*
X-26239Y570761D01*
X-3239D01*
X739D01*
X7000Y564500D02*
X119017D01*
X739Y570761D02*
X7000Y564500D01*
X119017Y564500D02*
X119325Y564192D01*
D36*
X683086D02*
Y566732D01*
D37*
X232500Y472250D02*
D03*
X719500Y452000D02*
D03*
X4750Y-17750D02*
D03*
M02*
