G04*
G04 #@! TF.GenerationSoftware,Altium Limited,Altium Designer,25.8.1 (18)*
G04*
G04 Layer_Physical_Order=2*
G04 Layer_Color=16711680*
%FSLAX44Y44*%
%MOMM*%
G71*
G04*
G04 #@! TF.SameCoordinates,F5F51230-77A1-446E-BA80-DD4D168F1C86*
G04*
G04*
G04 #@! TF.FilePolarity,Positive*
G04*
G01*
G75*
%ADD18C,1.5240*%
%ADD37C,1.2700*%
G36*
X962000Y-39250D02*
X-49000D01*
Y608250D01*
X962000D01*
Y-39250D01*
D02*
G37*
%LPC*%
G36*
X-24662Y564410D02*
X-27338D01*
X-29922Y563718D01*
X-32238Y562380D01*
X-34130Y560488D01*
X-35468Y558172D01*
X-36160Y555588D01*
Y552912D01*
X-35468Y550328D01*
X-34130Y548012D01*
X-32238Y546120D01*
X-29922Y544782D01*
X-27338Y544090D01*
X-24662D01*
X-22078Y544782D01*
X-19762Y546120D01*
X-17870Y548012D01*
X-16532Y550328D01*
X-15840Y552912D01*
Y555588D01*
X-16532Y558172D01*
X-17870Y560488D01*
X-19762Y562380D01*
X-22078Y563718D01*
X-24662Y564410D01*
D02*
G37*
G36*
X233420Y486890D02*
X231080D01*
X228819Y486284D01*
X226791Y485114D01*
X225136Y483459D01*
X223966Y481431D01*
X223360Y479170D01*
Y476830D01*
X223966Y474569D01*
X225136Y472541D01*
X226791Y470886D01*
X228819Y469716D01*
X231080Y469110D01*
X233420D01*
X235681Y469716D01*
X237709Y470886D01*
X239364Y472541D01*
X240534Y474569D01*
X241140Y476830D01*
Y479170D01*
X240534Y481431D01*
X239364Y483459D01*
X237709Y485114D01*
X235681Y486284D01*
X233420Y486890D01*
D02*
G37*
G36*
X716172Y461140D02*
X713832D01*
X711571Y460534D01*
X709544Y459364D01*
X707888Y457709D01*
X706718Y455681D01*
X706112Y453420D01*
Y451080D01*
X706718Y448819D01*
X707888Y446791D01*
X709544Y445136D01*
X711571Y443966D01*
X713832Y443360D01*
X716172D01*
X718434Y443966D01*
X720461Y445136D01*
X722116Y446791D01*
X723286Y448819D01*
X723892Y451080D01*
Y453420D01*
X723286Y455681D01*
X722116Y457709D01*
X720461Y459364D01*
X718434Y460534D01*
X716172Y461140D01*
D02*
G37*
G36*
X5670Y-4360D02*
X3330D01*
X1069Y-4966D01*
X-959Y-6136D01*
X-2614Y-7791D01*
X-3784Y-9819D01*
X-4390Y-12080D01*
Y-14420D01*
X-3784Y-16681D01*
X-2614Y-18709D01*
X-959Y-20364D01*
X1069Y-21534D01*
X3330Y-22140D01*
X5670D01*
X7931Y-21534D01*
X9959Y-20364D01*
X11614Y-18709D01*
X12784Y-16681D01*
X13390Y-14420D01*
Y-12080D01*
X12784Y-9819D01*
X11614Y-7791D01*
X9959Y-6136D01*
X7931Y-4966D01*
X5670Y-4360D01*
D02*
G37*
%LPD*%
D18*
X-26000Y551250D02*
D03*
D37*
X232500Y472250D02*
D03*
X719500Y452000D02*
D03*
X4750Y-17750D02*
D03*
M02*
