G04*
G04 #@! TF.GenerationSoftware,Altium Limited,Altium Designer,25.8.1 (18)*
G04*
G04 Layer_Color=65535*
%FSLAX44Y44*%
%MOMM*%
G71*
G04*
G04 #@! TF.SameCoordinates,F5F51230-77A1-446E-BA80-DD4D168F1C86*
G04*
G04*
G04 #@! TF.FilePolarity,Positive*
G04*
G01*
G75*
%ADD10C,0.1000*%
%ADD11C,0.2000*%
D10*
X439500Y572750D02*
G03*
X439500Y572750I-500J0D01*
G01*
X661502Y584750D02*
G03*
X661502Y584750I-500J0D01*
G01*
X897004Y589750D02*
G03*
X897004Y589750I-500J0D01*
G01*
Y562750D02*
G03*
X897004Y562750I-500J0D01*
G01*
X709752Y467500D02*
G03*
X709752Y467500I-500J0D01*
G01*
X767504Y494000D02*
G03*
X767504Y494000I-500J0D01*
G01*
D11*
X674052Y556250D02*
X690752D01*
X678752Y548250D02*
X690752D01*
X461000Y554750D02*
X465000D01*
X461000Y572750D02*
X465000D01*
X714252Y553050D02*
Y569750D01*
X722252Y557750D02*
Y569750D01*
X683002Y566750D02*
X687002D01*
X683002Y584750D02*
X687002D01*
X918504Y571750D02*
X922504D01*
X918504Y589750D02*
X922504D01*
X918504Y544750D02*
X922504D01*
X918504Y562750D02*
X922504D01*
X732052Y576000D02*
X748752D01*
X736752Y568000D02*
X748752D01*
X647752Y509799D02*
Y526499D01*
X655752Y514499D02*
Y526499D01*
X727252Y489500D02*
Y493500D01*
X709252Y489500D02*
Y493500D01*
X785004Y516000D02*
Y520000D01*
X767004Y516000D02*
Y520000D01*
M02*
